<svg width="20" height="21" viewBox="0 0 20 21" fill="none" xmlns="http://www.w3.org/2000/svg">
<path d="M11.9283 3.59375H4.79033C4.59662 3.59375 4.43945 3.75065 4.43945 3.94463C4.43945 4.13861 4.59662 4.29551 4.79033 4.29551H11.9283C12.122 4.29551 12.2792 4.13861 12.2792 3.94463C12.2792 3.75065 12.122 3.59375 11.9283 3.59375Z" fill="#8E84FA" stroke="#8E84FA" stroke-width="0.7"/>
<path d="M11.9283 5.64307H4.79033C4.59662 5.64307 4.43945 5.79997 4.43945 5.99395C4.43945 6.18793 4.59662 6.34483 4.79033 6.34483H11.9283C12.122 6.34483 12.2792 6.18793 12.2792 5.99395C12.2792 5.8001 12.122 5.64307 11.9283 5.64307Z" fill="#8E84FA" stroke="#8E84FA" stroke-width="0.7"/>
<path d="M11.9283 7.9873H4.79033C4.59662 7.9873 4.43945 8.14421 4.43945 8.33819C4.43945 8.53216 4.59662 8.68907 4.79033 8.68907H11.9283C12.122 8.68907 12.2792 8.53216 12.2792 8.33819C12.2792 8.14421 12.122 7.9873 11.9283 7.9873Z" fill="#8E84FA" stroke="#8E84FA" stroke-width="0.7"/>
<path fill-rule="evenodd" clip-rule="evenodd" d="M14.0156 9.97852H14.7174V2.79133C14.7174 1.80345 13.9137 1 12.9261 1H3.7911C2.80322 1 2 1.80372 2 2.79133V15.9046C2 16.8925 2.80359 17.696 3.7911 17.696H7.43359V16.9942H3.79123C3.19049 16.9942 2.70189 16.5053 2.70189 15.9046L2.70176 2.79133C2.70176 2.19059 3.19036 1.70176 3.7911 1.70176H12.9261C13.5268 1.70176 14.0156 2.19063 14.0156 2.79133V9.97852Z" fill="#8E84FA"/>
<path d="M14.0156 9.97852H13.6656V10.3285H14.0156V9.97852ZM14.7174 9.97852V10.3285H15.0674V9.97852H14.7174ZM7.43359 17.696V18.046H7.78359V17.696H7.43359ZM7.43359 16.9942H7.78359V16.6442H7.43359V16.9942ZM2.70189 15.9046L3.05189 15.9046L3.05189 15.9046L2.70189 15.9046ZM2.70176 2.79133L2.35176 2.79133L2.35176 2.79134L2.70176 2.79133ZM14.0156 10.3285H14.7174V9.62852H14.0156V10.3285ZM15.0674 9.97852V2.79133H14.3674V9.97852H15.0674ZM15.0674 2.79133C15.0674 1.61012 14.1069 0.65 12.9261 0.65V1.35C13.7204 1.35 14.3674 1.99679 14.3674 2.79133H15.0674ZM12.9261 0.65H3.7911V1.35H12.9261V0.65ZM3.7911 0.65C2.60983 0.65 1.65 1.61051 1.65 2.79133H2.35C2.35 1.99693 2.99661 1.35 3.7911 1.35V0.65ZM1.65 2.79133V15.9046H2.35V2.79133H1.65ZM1.65 15.9046C1.65 17.0858 2.61027 18.046 3.7911 18.046V17.346C2.9969 17.346 2.35 16.6992 2.35 15.9046H1.65ZM3.7911 18.046H7.43359V17.346H3.7911V18.046ZM7.78359 17.696V16.9942H7.08359V17.696H7.78359ZM7.43359 16.6442H3.79123V17.3442H7.43359V16.6442ZM3.79123 16.6442C3.38389 16.6442 3.05189 16.3121 3.05189 15.9046H2.35189C2.35189 16.6985 2.99708 17.3442 3.79123 17.3442V16.6442ZM3.05189 15.9046L3.05176 2.79133L2.35176 2.79134L2.35189 15.9046L3.05189 15.9046ZM3.05176 2.79133C3.05176 2.38379 3.38376 2.05176 3.7911 2.05176V1.35176C2.99696 1.35176 2.35176 1.99739 2.35176 2.79133H3.05176ZM3.7911 2.05176H12.9261V1.35176H3.7911V2.05176ZM12.9261 2.05176C13.3335 2.05176 13.6656 2.38392 13.6656 2.79133H14.3656C14.3656 1.99733 13.7201 1.35176 12.9261 1.35176V2.05176ZM13.6656 2.79133V9.97852H14.3656V2.79133H13.6656Z" fill="#8E84FA"/>
<circle cx="11.6703" cy="14.2153" r="3" transform="rotate(-41.9724 11.6703 14.2153)" stroke="#8E84FA" stroke-width="1.3"/>
<path d="M13.6758 16.4458L15.3477 18.3045" stroke="#8E84FA" stroke-width="1.3"/>
</svg>
