<svg width="20" height="20" viewBox="0 0 20 20" fill="none" xmlns="http://www.w3.org/2000/svg">
<path d="M5.89995 12.9772H8.04182C8.13649 12.9772 8.22733 12.9396 8.29426 12.8727C8.36119 12.8058 8.3988 12.7149 8.3988 12.6203V10.4784C8.3988 10.3837 8.36119 10.2929 8.29426 10.226C8.22733 10.159 8.13649 10.1214 8.04182 10.1214H5.89995C5.70281 10.1214 5.54297 10.2813 5.54297 10.4784V12.6203C5.54297 12.7149 5.58058 12.8058 5.64751 12.8727C5.71445 12.9396 5.80529 12.9772 5.89995 12.9772ZM6.25693 10.8354H7.68485V12.2633H6.25693V10.8354ZM9.46974 10.8354C9.46974 10.6382 9.62959 10.4784 9.82672 10.4784H11.6116C11.8088 10.4784 11.9686 10.6382 11.9686 10.8354C11.9686 11.0325 11.8088 11.1923 11.6116 11.1923H9.82672C9.62959 11.1923 9.46974 11.0325 9.46974 10.8354ZM9.82672 11.9063H14.4675C14.6646 11.9063 14.8244 12.0662 14.8244 12.2633C14.8244 12.4604 14.6646 12.6203 14.4675 12.6203H9.82672C9.62959 12.6203 9.46974 12.4604 9.46974 12.2633C9.46974 12.0662 9.62959 11.9063 9.82672 11.9063ZM5.89995 16.904H8.04182C8.13649 16.904 8.22733 16.8664 8.29426 16.7995C8.36119 16.7325 8.3988 16.6417 8.3988 16.547V14.4052C8.3988 14.3105 8.36119 14.2197 8.29426 14.1527C8.22733 14.0858 8.13649 14.0482 8.04182 14.0482H5.89995C5.70281 14.0482 5.54297 14.208 5.54297 14.4052V16.547C5.54297 16.6417 5.58058 16.7325 5.64751 16.7995C5.71445 16.8664 5.80529 16.904 5.89995 16.904ZM6.25693 14.7621H7.68485V16.1901H6.25693V14.7621ZM9.46974 14.7621C9.46974 14.565 9.62959 14.4052 9.82672 14.4052H11.6116C11.8088 14.4052 11.9686 14.565 11.9686 14.7621C11.9686 14.9593 11.8088 15.1191 11.6116 15.1191H9.82672C9.62959 15.1191 9.46974 14.9593 9.46974 14.7621ZM14.8244 16.1901C14.8244 16.2847 14.7868 16.3756 14.7199 16.4425C14.653 16.5094 14.5621 16.547 14.4675 16.547H9.82672C9.62959 16.547 9.46974 16.3872 9.46974 16.1901C9.46974 15.9929 9.62959 15.8331 9.82672 15.8331H14.4675C14.5621 15.8331 14.653 15.8707 14.7199 15.9376C14.7868 16.0046 14.8244 16.0954 14.8244 16.1901ZM9.11276 4.76672C9.11276 4.48273 9.22559 4.2102 9.42639 4.00943C9.6272 3.80867 9.89973 3.6958 10.1837 3.6958C10.4676 3.6958 10.7402 3.80863 10.941 4.00943C11.1417 4.21023 11.2546 4.48277 11.2546 4.76672C11.2546 5.05067 11.1418 5.32324 10.941 5.524C10.7402 5.72477 10.4676 5.83764 10.1837 5.83764C9.89969 5.83732 9.62749 5.72433 9.42668 5.52369C9.22604 5.32288 9.11308 5.05071 9.11276 4.76672ZM8.04182 8.33651C8.04182 7.57123 8.45013 6.86413 9.11276 6.48165C9.7754 6.09901 10.592 6.09901 11.2546 6.48165C11.9173 6.86413 12.3256 7.57123 12.3256 8.33651C12.3256 8.43118 12.288 8.52202 12.221 8.58895C12.1541 8.65588 12.0633 8.69349 11.9686 8.69349H8.3988C8.20167 8.69349 8.04182 8.53365 8.04182 8.33651Z" fill="#39BCF4" stroke="#39BCF4" stroke-width="0.33913"/>
<rect x="3.4663" y="2.4663" width="13.836" height="16.0239" rx="1.72163" stroke="#39BCF4" stroke-width="0.932609"/>
</svg>
