<svg width="20" height="20" viewBox="0 0 20 20" fill="none" xmlns="http://www.w3.org/2000/svg">
<path d="M4.48581 18.3427C3.72216 18.3427 3.10824 17.7516 3.02908 17.0079C3.009 16.9602 2.99915 16.9088 3.00006 16.8571V2.37139C3.00006 2.1662 3.16639 2 3.37145 2H15.6286C15.8337 2 16 2.1662 16 2.37139V15.7428C16 15.9479 15.8337 16.1142 15.6286 16.1142H15.4428V17.9714C15.4428 18.1766 15.2765 18.3428 15.0714 18.3428L4.48581 18.3427ZM4.48581 17.5999H14.7001V16.1142H4.48581C4.06778 16.1142 3.74288 16.4391 3.74288 16.8571C3.74288 17.275 4.06778 17.5999 4.48581 17.5999ZM3.74288 15.6035C3.96505 15.4709 4.20989 15.3714 4.48581 15.3714H15.2572V2.74282H3.74295L3.74288 15.6035Z" fill="#F19D39" stroke="#F19D39" stroke-width="0.257022"/>
<path d="M9.91777 13.5702C9.3801 13.5702 8.9005 13.4971 8.47899 13.3511C8.05748 13.2067 7.70069 12.9943 7.40862 12.7139C7.11655 12.4351 6.89417 12.0957 6.7415 11.6958C6.58883 11.2958 6.51166 10.8403 6.51 10.3292C6.51166 9.82301 6.58883 9.3625 6.7415 8.94763C6.89583 8.5311 7.12069 8.17265 7.41608 7.87228C7.71313 7.57025 8.07656 7.33709 8.50637 7.1728C8.93784 7.00851 9.42988 6.92637 9.98249 6.92637C10.487 6.92637 10.94 6.99772 11.3416 7.14044C11.7432 7.28316 12.0851 7.48893 12.3672 7.75777C12.651 8.02661 12.8675 8.35104 13.0169 8.73107C13.1662 9.11109 13.2401 9.54007 13.2384 10.018C13.2401 10.3449 13.2085 10.6378 13.1438 10.8967C13.0791 11.1556 12.9804 11.3771 12.8476 11.5613C12.7165 11.7455 12.5506 11.8907 12.3498 11.997C12.1506 12.1015 11.9158 12.1637 11.6453 12.1836C11.4263 12.2019 11.2603 12.1886 11.1475 12.1438C11.0346 12.099 10.955 12.0343 10.9085 11.9497C10.862 11.8634 10.8297 11.7671 10.8114 11.6609H10.7815C10.7434 11.7621 10.6596 11.8526 10.5301 11.9322C10.4023 12.0102 10.2497 12.0691 10.0721 12.109C9.89454 12.1505 9.712 12.1654 9.52447 12.1538C9.33529 12.1405 9.15109 12.0957 8.97186 12.0194C8.79264 11.9414 8.63083 11.8277 8.48646 11.6783C8.34374 11.5273 8.23007 11.3373 8.14543 11.1083C8.06246 10.8793 8.02014 10.6096 8.01848 10.2993C8.02014 9.98896 8.06329 9.72261 8.14792 9.50024C8.23422 9.27621 8.34623 9.09035 8.48397 8.94265C8.62337 8.7933 8.77604 8.67796 8.94199 8.59665C9.10794 8.51367 9.27057 8.45974 9.42988 8.43485C9.62238 8.40166 9.80825 8.39917 9.98747 8.42738C10.1667 8.45559 10.3177 8.50123 10.4405 8.56429C10.565 8.62735 10.6421 8.69539 10.672 8.7684H10.7094V8.48961H11.5706V10.9789C11.5739 11.0867 11.5955 11.1647 11.6353 11.2128C11.6752 11.261 11.7266 11.285 11.7897 11.285C11.8859 11.285 11.9706 11.2377 12.0436 11.1431C12.1183 11.0469 12.1755 10.9 12.2153 10.7025C12.2568 10.5034 12.2767 10.2503 12.2751 9.94333C12.2767 9.60147 12.2319 9.3094 12.1407 9.06711C12.0511 8.82317 11.9291 8.62154 11.7747 8.46223C11.6204 8.30292 11.4445 8.17845 11.247 8.08884C11.0512 7.99757 10.8438 7.93368 10.6247 7.89717C10.4057 7.86066 10.1899 7.84241 9.97751 7.84241C9.55434 7.84241 9.18842 7.9063 8.87976 8.03408C8.57109 8.1602 8.31553 8.33528 8.11307 8.55931C7.91061 8.78334 7.7596 9.04305 7.66003 9.33844C7.56212 9.63217 7.51234 9.94747 7.51068 10.2844C7.51234 10.6677 7.5671 11.0071 7.67497 11.3025C7.78283 11.5962 7.94131 11.8426 8.15041 12.0418C8.35951 12.2409 8.61756 12.3911 8.92457 12.4923C9.23323 12.5952 9.5867 12.6466 9.98498 12.6466C10.1791 12.6466 10.3683 12.6342 10.5525 12.6093C10.7367 12.5844 10.9043 12.5529 11.0554 12.5147C11.208 12.4765 11.3333 12.4367 11.4312 12.3952L11.715 13.2042C11.6105 13.269 11.4661 13.3287 11.2819 13.3835C11.0993 13.4399 10.8902 13.4847 10.6546 13.5179C10.4206 13.5527 10.175 13.5702 9.91777 13.5702ZM9.85803 11.2303C10.0555 11.2303 10.2115 11.1938 10.326 11.1207C10.4405 11.0461 10.5218 10.9365 10.57 10.7922C10.6181 10.6478 10.6397 10.471 10.6347 10.2619C10.6347 10.0894 10.6131 9.93669 10.57 9.80393C10.5268 9.67117 10.4488 9.56662 10.336 9.49028C10.2231 9.41395 10.0605 9.37578 9.84807 9.37578C9.66553 9.37578 9.51037 9.41146 9.38259 9.48282C9.25646 9.55417 9.15938 9.65623 9.09134 9.78899C9.02496 9.92175 8.99177 10.0819 8.99177 10.2694C8.99177 10.4337 9.01916 10.5897 9.07392 10.7374C9.12868 10.8834 9.21913 11.0021 9.34525 11.0934C9.47137 11.1846 9.6423 11.2303 9.85803 11.2303Z" fill="#F19D39"/>
</svg>
