<svg width="20" height="20" viewBox="0 0 20 20" fill="none" xmlns="http://www.w3.org/2000/svg">
<path d="M3.33268 3.3335H16.666C17.5827 3.3335 18.3327 4.0835 18.3327 5.00016V15.0002C18.3327 15.9168 17.5827 16.6668 16.666 16.6668H3.33268C2.41602 16.6668 1.66602 15.9168 1.66602 15.0002V5.00016C1.66602 4.0835 2.41602 3.3335 3.33268 3.3335Z" stroke="#41BD55" stroke-width="1.3" stroke-linecap="round" stroke-linejoin="round"/>
<path d="M15.2953 16.4703V15.2939C15.2953 14.6698 15.0164 14.0713 14.52 13.6301C14.0235 13.1888 13.3503 12.9409 12.6482 12.9409H7.35409C6.65205 12.9409 5.97876 13.1888 5.48234 13.6301C4.98592 14.0713 4.70703 14.6698 4.70703 15.2939V16.4703" stroke="#41BD55" stroke-width="1.08333" stroke-linecap="round" stroke-linejoin="round"/>
<path d="M10.0002 10.539C11.408 10.539 12.5492 9.39772 12.5492 7.98994C12.5492 6.58215 11.408 5.44092 10.0002 5.44092C8.59241 5.44092 7.45117 6.58215 7.45117 7.98994C7.45117 9.39772 8.59241 10.539 10.0002 10.539Z" stroke="#41BD55" stroke-width="1.08333" stroke-linecap="round" stroke-linejoin="round"/>
</svg>
