<svg width="20" height="20" viewBox="0 0 20 20" fill="none" xmlns="http://www.w3.org/2000/svg">
<path d="M13.1607 5.39502H6.74023C6.58915 5.39502 6.45703 5.52727 6.45703 5.67822C6.45703 5.82931 6.58928 5.96142 6.74023 5.96142H13.1607C13.3118 5.96142 13.4439 5.82917 13.4439 5.67822C13.444 5.5083 13.3306 5.39502 13.1607 5.39502Z" fill="#EA7D5B" stroke="#EA7D5B" stroke-width="0.609704"/>
<path d="M13.1607 7.37744H6.74023C6.58915 7.37744 6.45703 7.50969 6.45703 7.66064C6.45703 7.81173 6.58928 7.94385 6.74023 7.94385H13.1607C13.3118 7.94385 13.4439 7.81159 13.4439 7.66064C13.444 7.49072 13.3306 7.37744 13.1607 7.37744V7.37744Z" fill="#EA7D5B" stroke="#EA7D5B" stroke-width="0.609704"/>
<path d="M17.9002 7.81345C17.8814 7.719 17.8248 7.64352 17.7491 7.58688L15.4263 6.62374V3.2832C15.4263 3.13212 15.2942 3 15.1431 3H4.75709C4.606 3 4.47389 3.13212 4.47389 3.2832V6.62374L2.18889 7.56793C2.07561 7.58677 2 7.70018 2 7.8323V17.3497C2 17.5008 2.13225 17.6329 2.2832 17.6329H17.6168C17.7679 17.6329 17.9 17.5006 17.9 17.3497L17.9003 7.8323L17.9002 7.81345ZM2.88767 7.87009L4.47387 7.20909V8.85194L2.88767 7.87009ZM15.4265 8.83312V7.19027L17.0127 7.85127L15.4265 8.83312ZM5.04041 9.17296V3.54749H14.8599V9.15408L9.95018 12.1377L5.04041 9.17296ZM17.3337 8.32323V17.0664H2.56664V8.32323L9.81799 12.7043C9.87463 12.7421 9.91244 12.7421 9.95024 12.7421C9.98805 12.7421 10.0257 12.7421 10.1013 12.7043L17.3337 8.32323Z" fill="#EA7D5B" stroke="#EA7D5B" stroke-width="0.609704"/>
</svg>
