<svg width="20" height="20" viewBox="0 0 20 20" fill="none" xmlns="http://www.w3.org/2000/svg">
<path d="M10.2822 16.2754C6.27319 16.2754 3 13.0023 3 8.99319C3 8.56186 3.32991 8.23193 3.76125 8.23193C4.19259 8.23193 4.5225 8.56184 4.5225 8.99319C4.5225 12.1649 7.11065 14.753 10.2823 14.753C13.454 14.753 16.0421 12.1648 16.0421 8.99319C16.0421 8.56186 16.372 8.23193 16.8034 8.23193C17.2347 8.23193 17.5646 8.56184 17.5646 8.99319C17.5643 13.0275 14.3164 16.2754 10.2819 16.2754H10.2822Z" fill="#1FD8CA"/>
<path d="M10.2847 18.7615C9.85336 18.7615 9.52344 18.4316 9.52344 18.0003V15.5137C9.52344 15.0824 9.85335 14.7524 10.2847 14.7524C10.716 14.7524 11.0459 15.0824 11.0459 15.5137V18.0003C11.0459 18.4316 10.716 18.7615 10.2847 18.7615Z" fill="#1FD8CA"/>
<path d="M10.4074 12.9764H10.1791C7.9716 12.9764 6.19531 11.2003 6.19531 8.99263V4.98374C6.19531 2.77629 7.97142 1 10.1791 1H10.4074C12.6148 1 14.3911 2.7761 14.3911 4.98374V8.99276C14.3909 11.2002 12.6148 12.9763 10.4074 12.9763V12.9764ZM10.1791 2.52246C8.80897 2.52246 7.71782 3.63894 7.71782 4.98369V8.99272C7.71782 10.3628 8.8343 11.454 10.1791 11.454H10.4074C11.7522 11.454 12.8686 10.3375 12.8686 8.99272V4.98369C12.8686 3.61361 11.7521 2.52246 10.4074 2.52246H10.1791Z" fill="#1FD8CA"/>
</svg>
