<svg width="20" height="20" viewBox="0 0 20 20" fill="none" xmlns="http://www.w3.org/2000/svg">
<path fill-rule="evenodd" clip-rule="evenodd" d="M4.29451 3C2.47504 3 1 4.47504 1 6.29451V13.7665C1 15.586 2.47504 17.061 4.29451 17.061H15.3023C17.1218 17.061 18.5968 15.586 18.5968 13.7665V6.29451C18.5968 4.47504 17.1218 3 15.3023 3H4.29451ZM2.31781 6.29451C2.31781 5.20292 3.20277 4.31781 4.29451 4.31781H15.3023C16.3941 4.31781 17.279 5.20292 17.279 6.29451V13.7665C17.279 14.8581 16.3941 15.7432 15.3023 15.7432H4.29451C3.20277 15.7432 2.31781 14.8581 2.31781 13.7665V6.29451ZM12.6381 11.3605C13.7171 10.7802 13.7171 9.23262 12.6381 8.65226L9.67688 7.05986C8.65265 6.50905 7.41131 7.25091 7.41131 8.414V11.5988C7.41131 12.7619 8.65265 13.5037 9.67688 12.9529L12.6381 11.3605ZM12.0139 9.81298C12.1679 9.89593 12.1679 10.1168 12.0139 10.1998L9.05281 11.7923C8.90632 11.871 8.72895 11.765 8.72895 11.5988V8.41398C8.72895 8.24778 8.90632 8.14174 9.05281 8.22042L12.0139 9.81298Z" fill="#6686F9"/>
</svg>
