<svg width="430" height="177" viewBox="0 0 430 177" fill="none" xmlns="http://www.w3.org/2000/svg">
<g opacity="0.43">
<g style="mix-blend-mode:exclusion">
<rect x="2.30754" width="45.2969" height="45.2969" transform="matrix(0.866025 -0.5 0.866025 0.5 56.1256 114.762)" stroke="white" stroke-width="2.66452"/>
<rect width="47.9614" height="47.9614" transform="matrix(0.866025 -0.5 0.866025 0.5 107.738 143.584)" fill="#C5B466"/>
<rect x="2.30754" width="45.2969" height="45.2969" transform="matrix(0.866025 -0.5 0.866025 0.5 161.122 175.38)" stroke="white" stroke-width="2.66452"/>
<rect x="2.30754" width="45.2969" height="45.2969" transform="matrix(0.866025 -0.5 0.866025 0.5 58.4381 173.382)" stroke="white" stroke-width="2.66452"/>
<rect x="2.30754" width="45.2969" height="45.2969" transform="matrix(0.866025 -0.5 0.866025 0.5 105.739 86.1185)" stroke="white" stroke-width="2.66452"/>
<rect x="2.30754" width="45.2969" height="45.2969" transform="matrix(0.866025 -0.5 0.866025 0.5 157.661 116.094)" stroke="white" stroke-width="2.66452"/>
<rect x="2.30754" width="45.2969" height="45.2969" transform="matrix(0.866025 -0.5 0.866025 0.5 210.731 146.736)" stroke="white" stroke-width="2.66452"/>
<rect x="2.30754" width="45.2969" height="45.2969" transform="matrix(0.866025 -0.5 0.866025 0.5 263.805 177.378)" stroke="white" stroke-width="2.66452"/>
<rect x="2.30754" width="45.2969" height="45.2969" transform="matrix(0.866025 -0.5 0.866025 0.5 155.352 57.4748)" stroke="white" stroke-width="2.66452"/>
<rect x="2.30754" width="45.2969" height="45.2969" transform="matrix(0.866025 -0.5 0.866025 0.5 207.274 87.4508)" stroke="white" stroke-width="2.66452"/>
<rect width="47.9614" height="47.9614" transform="matrix(0.866025 -0.5 0.866025 0.5 260.035 116.939)" fill="#797C7E"/>
<rect x="2.30754" width="45.2969" height="45.2969" transform="matrix(0.866025 -0.5 0.866025 0.5 313.419 148.735)" stroke="white" stroke-width="2.66452"/>
<rect x="2.30754" width="45.2969" height="45.2969" transform="matrix(0.866025 -0.5 0.866025 0.5 366.493 179.377)" stroke="white" stroke-width="2.66452"/>
<rect x="2.30754" width="45.2969" height="45.2969" transform="matrix(0.866025 -0.5 0.866025 0.5 204.965 28.8313)" stroke="white" stroke-width="2.66452"/>
<rect x="2.30754" width="45.2969" height="45.2969" transform="matrix(0.866025 -0.5 0.866025 0.5 256.887 58.8071)" stroke="white" stroke-width="2.66452"/>
<rect x="2.30754" width="45.2969" height="45.2969" transform="matrix(0.866025 -0.5 0.866025 0.5 309.958 89.4492)" stroke="white" stroke-width="2.66452"/>
<rect x="2.30754" width="45.2969" height="45.2969" transform="matrix(0.866025 -0.5 0.866025 0.5 363.032 120.091)" stroke="white" stroke-width="2.66452"/>
<rect x="2.30754" width="45.2969" height="45.2969" transform="matrix(0.866025 -0.5 0.866025 0.5 416.106 150.733)" stroke="white" stroke-width="2.66452"/>
<rect width="47.9614" height="47.9614" transform="matrix(0.866025 -0.5 0.866025 0.5 6.20703 142.252)" fill="#79A76B"/>
<path d="M51.9289 154.49L22.3594 144.917L27.6012 141.89L47.3914 148.978L47.5798 148.869L35.6912 137.219L40.1794 134.628L60.3802 141.518L60.5797 141.403L48.2694 129.957L53.5112 126.931L70.0925 144.003L65.4159 146.703L46.0069 140.488L45.8296 140.59L56.6056 151.79L51.9289 154.49Z" fill="white"/>
<path d="M102.65 126.91L75.236 111.083L92.9407 100.861L97.2431 103.345L84.1264 110.918L90.8846 114.82L101.717 108.566L106.019 111.05L95.1871 117.304L102.935 121.777L116.052 114.204L120.354 116.688L102.65 126.91Z" fill="white"/>
<path d="M161.87 152.669L134.457 136.842L139.045 134.193L166.458 150.02L161.87 152.669Z" fill="white"/>
<path d="M205.742 188.627L186.971 167.81L193.691 163.93L229.748 174.767L225.027 177.493L192.587 167.821L193.615 167.227L210.463 185.901L205.742 188.627ZM204.619 182.417L200.335 179.944L214.728 171.635L219.011 174.108L204.619 182.417Z" fill="white"/>
<path d="M104.958 185.529L77.5446 169.702L88.8718 163.162C89.1383 163.008 89.4937 162.818 89.9379 162.591C90.3694 162.356 90.7946 162.155 91.2134 161.986C93.0409 161.21 94.8749 160.759 96.7151 160.634C98.5681 160.503 100.364 160.653 102.103 161.085C103.841 161.503 105.466 162.148 106.976 163.019C108.474 163.884 109.591 164.822 110.327 165.833C111.05 166.837 111.298 167.874 111.069 168.944C110.853 170.006 110.079 171.061 108.747 172.109C108.442 172.344 108.087 172.593 107.681 172.857C107.287 173.113 106.964 173.315 106.71 173.461L99.9705 177.352L109.546 182.88L104.958 185.529ZM95.6871 174.879L102.236 171.098C102.49 170.951 102.763 170.779 103.055 170.581C103.346 170.384 103.588 170.186 103.778 169.988C104.349 169.438 104.609 168.9 104.558 168.372C104.52 167.837 104.286 167.343 103.854 166.888C103.435 166.427 102.934 166.027 102.35 165.69C101.766 165.353 101.075 165.064 100.275 164.822C99.4755 164.566 98.6125 164.426 97.686 164.404C96.7722 164.375 95.8394 164.525 94.8876 164.855C94.5449 164.965 94.2086 165.108 93.8786 165.284C93.5359 165.452 93.2377 165.61 92.9838 165.756L86.435 169.537L95.6871 174.879Z" fill="white"/>
<path d="M150.355 99.3654L131.585 78.5482L138.305 74.6683L174.361 85.5056L169.64 88.2314L137.201 78.5592L138.229 77.9656L155.077 96.6396L150.355 99.3654ZM149.232 93.1554L144.949 90.6824L159.341 82.3731L163.624 84.8461L149.232 93.1554Z" fill="white"/>
<path d="M204.562 128.022L177.148 112.195L181.736 109.546L204.847 122.889L216.955 115.899L221.257 118.383L204.562 128.022Z" fill="white"/>
<path d="M266.826 154.017C265.049 155.043 263.069 155.827 260.886 156.369C258.703 156.897 256.412 157.15 254.014 157.128C251.628 157.099 249.223 156.765 246.799 156.128C244.362 155.483 242.001 154.501 239.717 153.182C236.722 151.453 234.723 149.654 233.72 147.785C232.705 145.91 232.603 144.085 233.415 142.312C234.215 140.531 235.833 138.937 238.27 137.531C241.646 135.582 245.104 134.493 248.645 134.266C252.186 134.024 255.721 134.519 259.249 135.75L255.308 138.883C253.163 138.245 251.019 137.989 248.874 138.113C246.716 138.23 244.724 138.817 242.896 139.872C241.03 140.92 239.901 142.033 239.507 143.213C239.114 144.393 239.355 145.594 240.231 146.818C241.119 148.035 242.566 149.222 244.571 150.379C246.576 151.537 248.626 152.369 250.72 152.874C252.802 153.373 254.864 153.508 256.907 153.281C258.963 153.046 260.924 152.405 262.79 151.357C264.186 150.566 265.15 149.723 265.684 148.83C266.204 147.928 266.274 146.987 265.893 146.005C265.5 145.016 264.63 144.001 263.285 142.96L258.449 145.752L254.851 143.675L264.56 138.069C264.789 138.172 265.106 138.333 265.512 138.553C265.918 138.773 266.159 138.905 266.236 138.948C268.825 140.443 270.614 142.07 271.604 143.829C272.594 145.572 272.708 147.324 271.947 149.082C271.185 150.841 269.478 152.486 266.826 154.017Z" fill="white"/>
<path d="M201.872 69.6226L174.459 53.7954L185.786 47.2556C186.052 47.1017 186.408 46.9112 186.852 46.6841C187.283 46.4496 187.709 46.2481 188.127 46.0796C189.955 45.3029 191.789 44.8522 193.629 44.7277C195.482 44.5958 197.278 44.746 199.017 45.1783C200.755 45.596 202.38 46.2408 203.89 47.1127C206.124 48.4024 207.482 49.8385 207.964 51.4213C208.434 52.9967 207.691 54.5684 205.737 56.1365L203.947 57.3675L196.885 61.4452L206.46 66.9737L201.872 69.6226ZM217.616 60.5329L201.054 57.2136L204.69 53.9273L222.813 57.5324L217.616 60.5329ZM192.601 58.9722L199.15 55.1912C199.404 55.0447 199.677 54.8725 199.969 54.6747C200.26 54.4768 200.502 54.279 200.692 54.0811C201.263 53.5316 201.523 52.993 201.473 52.4654C201.434 51.9305 201.2 51.4359 200.768 50.9816C200.349 50.52 199.848 50.1207 199.264 49.7836C198.68 49.4465 197.989 49.1571 197.189 48.9153C196.39 48.6588 195.527 48.5196 194.6 48.4976C193.686 48.4683 192.753 48.6185 191.802 48.9483C191.459 49.0582 191.123 49.2011 190.793 49.3769C190.45 49.5454 190.152 49.703 189.898 49.8495L183.349 53.6305L192.601 58.9722Z" fill="white"/>
<path d="M254.171 99.3787L226.757 83.5515L231.345 80.9026L254.457 94.2459L266.564 87.2555L270.867 89.7395L254.171 99.3787Z" fill="white"/>
<path d="M316.173 125.528C313.99 126.788 311.623 127.642 309.072 128.089C306.533 128.528 303.989 128.554 301.438 128.166C298.899 127.77 296.545 126.946 294.375 125.693L277.184 115.768L281.791 113.064L298.906 122.945C299.934 123.538 301.025 123.971 302.18 124.242C303.348 124.506 304.515 124.63 305.683 124.615C306.838 124.593 307.948 124.443 309.015 124.165C310.081 123.886 311.026 123.509 311.851 123.033C312.701 122.542 313.361 121.992 313.831 121.384C314.301 120.761 314.554 120.116 314.592 119.45C314.618 118.775 314.396 118.105 313.926 117.438C313.457 116.771 312.714 116.145 311.699 115.559L294.584 105.678L299.229 102.996L316.458 112.943C318.628 114.196 320.05 115.559 320.722 117.032C321.408 118.497 321.363 119.966 320.589 121.439C319.828 122.904 318.355 124.267 316.173 125.528Z" fill="white"/>
<path d="M258.149 37.1322L246.917 30.6474L221.407 26.6906L226.756 23.6021L243.985 26.2729L239.34 16.3369L244.689 13.2484L251.562 27.9655L262.794 34.4503L258.149 37.1322Z" fill="white"/>
<path d="M314.122 65.4263C312.116 66.5841 309.959 67.4267 307.649 67.9543C305.352 68.4746 303.036 68.6614 300.7 68.5149C298.365 68.3537 296.163 67.8371 294.094 66.9651L298.13 63.7997C300.161 64.5031 302.249 64.7486 304.393 64.5361C306.551 64.3162 308.455 63.73 310.105 62.7775C311.082 62.2133 311.85 61.5941 312.408 60.92C312.967 60.2458 313.22 59.5864 313.17 58.9416C313.132 58.2894 312.687 57.7179 311.837 57.2269C311.456 57.0071 311.044 56.8423 310.6 56.7323C310.143 56.6151 309.66 56.5565 309.153 56.5565C308.658 56.5492 308.112 56.6004 307.516 56.7104C306.919 56.8056 306.291 56.9558 305.631 57.161L296.455 60.0407C295.668 60.2898 294.773 60.5353 293.771 60.7771C292.768 61.0042 291.689 61.1508 290.534 61.2167C289.379 61.268 288.193 61.1764 286.974 60.942C285.756 60.6928 284.544 60.2202 283.338 59.5241C281.574 58.5056 280.54 57.3955 280.235 56.1938C279.931 54.9774 280.235 53.7611 281.149 52.5447C282.076 51.321 283.472 50.178 285.337 49.1155C287.228 48.0383 289.227 47.258 291.334 46.7744C293.428 46.2834 295.567 46.0966 297.75 46.2138C299.932 46.3311 302.071 46.7597 304.165 47.4998L300.091 50.8411C298.923 50.4014 297.711 50.156 296.455 50.1047C295.199 50.0387 293.974 50.145 292.781 50.4234C291.6 50.6945 290.528 51.0939 289.563 51.6215C288.637 52.1417 287.926 52.7132 287.431 53.3361C286.936 53.9443 286.714 54.5414 286.765 55.1276C286.828 55.7065 287.216 56.2011 287.926 56.6114C288.599 56.9998 289.354 57.2013 290.192 57.216C291.017 57.2233 291.854 57.128 292.705 56.9302C293.555 56.7177 294.374 56.4795 295.16 56.2158L301.443 54.1714C302.293 53.8856 303.289 53.5889 304.432 53.2811C305.574 52.9734 306.805 52.7535 308.125 52.6217C309.445 52.4898 310.796 52.5374 312.18 52.7645C313.576 52.9844 314.959 53.49 316.33 54.2813C317.751 55.102 318.703 55.9959 319.185 56.9632C319.668 57.9157 319.763 58.8866 319.471 59.8758C319.179 60.865 318.564 61.8359 317.624 62.7885C316.698 63.7337 315.53 64.613 314.122 65.4263Z" fill="white"/>
<path d="M357.63 100.931L330.217 85.1035L347.921 74.8817L352.224 77.3657L339.107 84.9386L345.865 88.8405L356.697 82.5865L361 85.0705L350.168 91.3245L357.916 95.7979L371.032 88.225L375.335 90.709L357.63 100.931Z" fill="white"/>
</g>
</g>
</svg>
